# Blender v2.79 (sub 0) OBJ File: ''
# www.blender.org
mtllib RoomBottom.mtl
o Cube.003_Cube.002
v -25.000000 0.000003 -18.000000
v -47.000000 1.000003 -18.000000
v -25.000000 1.000003 -18.000000
v -24.000000 0.000003 -17.999994
v -24.000000 1.000003 -17.000000
v -24.000000 0.000003 -17.000000
v -25.000000 0.000003 -17.000000
v -25.000000 1.000001 -6.000000
v -25.000000 1.000003 -17.000000
v -24.000000 9.000001 -17.999992
v -24.000000 1.000003 -18.000000
v -24.000000 9.000001 -5.999999
v -24.000000 1.000001 -6.000000
v -24.000000 0.000001 -6.000000
v -24.000000 1.000001 -5.000000
v -25.000000 0.000001 -5.000000
v -24.000000 0.000001 -5.000000
v -25.000000 0.000001 -6.000000
v -25.000000 1.000001 -5.000000
v -24.000000 9.000001 -4.999999
v -24.000000 9.000003 -16.999998
v -25.000000 9.000001 -4.999999
v -25.000000 9.000001 -5.999999
v -25.000000 8.999999 8.000002
v -25.000000 0.999999 9.000000
v -25.000000 8.999998 9.000002
v -24.000000 0.999999 8.000000
v -25.000000 -0.000001 8.000000
v -25.000000 0.999999 8.000000
v -24.000000 8.999998 9.000002
v -24.000000 8.999999 8.000002
v -24.000000 0.999999 9.000000
v -24.000000 -0.000001 8.000000
v -25.000000 -0.000001 9.000000
v -24.000000 0.999997 17.000000
v -24.000000 -0.000003 18.000000
v -24.000000 -0.000003 17.000000
v -24.000000 -0.000001 9.000000
v -24.000000 8.999997 17.000002
v -25.000000 0.999997 17.000000
v -25.000000 0.999997 18.000000
v -24.000000 0.999997 18.000000
v -24.000000 8.999995 18.000002
v -25.000000 8.999997 18.000002
v -48.000000 0.999997 18.000000
v -48.000000 8.999997 17.000002
v -48.000000 0.999997 17.000000
v -47.000000 -0.000003 18.000000
v -25.000000 -0.000003 18.000000
v -25.000000 -0.000003 17.000000
v -47.000000 0.999997 17.000000
v -47.000000 8.999997 18.000002
v -47.000000 0.999997 18.000000
v -48.000000 -0.000003 17.000000
v -48.000000 -0.000001 5.000000
v -48.000000 -0.000003 18.000000
v -47.000000 0.000003 -18.000000
v -48.000000 1.000003 -18.000000
v -47.000000 0.000003 -17.000000
v -25.000000 9.000003 -17.999998
v -48.000000 1.000003 -17.000000
v -48.000000 0.000003 -18.000000
v -48.000000 0.000003 -17.000000
v -47.000000 1.000001 -5.000000
v -47.000000 0.000001 -4.000000
v -47.000000 0.000001 -5.000000
v -47.000000 1.000003 -17.000000
v -48.000000 1.000001 -5.000000
v -47.000000 -0.000003 17.000000
v -47.000000 0.999999 5.000000
v -48.000000 8.999999 5.000001
v -48.000000 0.999999 5.000000
v -47.000000 -0.000001 4.000000
v -48.000000 0.999999 4.000000
v -47.000000 0.999999 4.000000
v -48.000000 -0.000001 4.000000
v -48.000000 7.000000 4.000001
v -47.000000 -0.000001 5.000000
v -47.000000 1.000001 -4.000000
v -48.000000 0.000001 -4.000000
v -48.000000 0.000001 -5.000000
v -48.000000 1.000001 -4.000000
v -48.000000 7.000001 -4.999999
v -47.000000 7.000000 -3.999999
v -48.000000 7.000000 -3.999999
v -47.000000 8.000001 -4.999999
v -47.000000 9.000001 -3.999999
v -47.000000 8.000001 -3.999999
v -47.000000 7.000001 -4.999999
v -48.000000 8.000001 -4.999999
v -47.000000 7.000000 4.000001
v -47.000000 7.999999 5.000001
v -47.000000 6.999999 5.000001
v -48.000000 7.999999 5.000001
v -48.000000 8.999999 4.000001
v -48.000000 8.000000 4.000001
v -48.000000 6.999999 5.000001
v -48.000000 8.000001 -3.999999
v -48.000000 8.999997 18.000002
v -48.000000 9.000003 -17.999998
v -47.000000 9.000003 -17.999998
v -48.000000 9.000001 -4.999999
v -47.000000 8.000000 4.000001
v -47.000000 8.999999 5.000001
v -47.000000 8.999999 4.000001
v -47.000000 8.999997 17.000002
v -47.000000 9.000001 -4.999999
v -48.000000 9.000003 -16.999998
v -25.000000 9.000003 -16.999998
v -25.000000 8.999997 17.000002
v -47.000000 9.000003 -16.999998
v -48.000000 9.000002 -10.799999
v -40.000000 9.000002 -17.999996
v -40.000000 9.000001 -10.799997
v -24.000000 0.000002 -10.799995
v -32.000000 0.000003 -17.999996
v -32.000000 0.000002 -10.799997
v -40.000000 8.999997 10.800001
v -40.000000 8.999997 18.000002
v -48.000000 8.999998 10.800001
v -40.000000 8.999998 3.600001
v -48.000000 8.999999 3.599999
v -40.000000 9.000000 -3.599998
v -48.000000 9.000001 -3.600000
v -32.000000 -0.000002 10.800001
v -32.000000 -0.000003 18.000000
v -24.000000 -0.000002 10.800001
v -32.000000 -0.000001 3.600002
v -24.000000 -0.000001 3.600002
v -32.000000 0.000001 -3.599998
v -24.000000 0.000001 -3.599997
v -32.000000 8.999999 -3.599997
v -24.000000 9.000000 -10.799994
v -24.000000 8.999999 -3.599996
v -32.000000 9.000000 -10.799995
v -32.000000 8.999997 3.600003
v -24.000000 8.999997 3.600003
v -32.000000 8.999996 10.800001
v -24.000000 8.999996 10.800003
v -32.000000 8.999996 18.000002
v -32.000000 9.000001 -17.999994
v -48.000000 0.000001 -3.600000
v -40.000000 0.000002 -10.799998
v -48.000000 0.000002 -10.799999
v -40.000000 0.000001 -3.599998
v -48.000000 -0.000001 3.600000
v -40.000000 -0.000001 3.600002
v -40.000000 -0.000002 10.799999
v -48.000000 -0.000002 10.799999
v -40.000000 -0.000003 18.000000
v -40.000000 0.000003 -17.999998
v -48.000000 9.000001 -3.999999
vt 0.015591 0.000220
vt 0.353756 0.015591
vt 0.015591 0.015591
vt 0.000220 0.000220
vt 0.538208 0.000219
vt 0.522837 0.015591
vt 0.522837 0.000219
vt 0.000220 0.000220
vt 0.169302 0.015591
vt 0.000220 0.015591
vt 0.000220 0.138560
vt 0.000220 0.015591
vt 0.353755 0.138559
vt 0.353754 0.015591
vt 0.353754 0.000220
vt 0.353970 0.184785
vt 0.365469 0.173285
vt 0.365469 0.184785
vt 0.169302 0.000220
vt 0.184673 0.015591
vt 0.338384 0.138559
vt 0.338383 0.015591
vt 0.338383 0.000220
vt 0.538208 0.138559
vt 0.522837 0.138559
vt 0.261974 0.173285
vt 0.353970 0.173285
vt 0.169302 0.138560
vt 0.261974 0.184785
vt 0.112481 0.173285
vt 0.000220 0.000220
vt 0.123189 0.015591
vt 0.000220 0.015591
vt 0.020487 0.184785
vt 0.008987 0.173285
vt 0.020487 0.173285
vt 0.138560 0.138560
vt 0.153931 0.015591
vt 0.153931 0.138560
vt 0.112481 0.184785
vt 0.138560 0.015591
vt 0.153931 0.000220
vt 0.123189 0.000220
vt 0.138560 0.015591
vt 0.015591 0.015591
vt 0.000220 0.000220
vt 0.015591 0.000220
vt 0.138560 0.000220
vt 0.015591 0.138560
vt 0.123189 0.138560
vt 0.353756 0.015590
vt 0.369127 0.000219
vt 0.369127 0.015590
vt 0.000220 0.138560
vt 0.000220 0.015591
vt 0.369127 0.138559
vt 0.353756 0.138559
vt 0.553579 0.015591
vt 0.538208 0.138560
vt 0.538208 0.015591
vt 0.015591 0.000220
vt 0.353756 0.000219
vt 0.000219 0.000220
vt 0.338383 0.015590
vt 0.000219 0.015591
vt 0.015591 0.138559
vt 0.015591 0.015591
vt 0.538208 0.000220
vt 0.353754 0.000220
vt 0.000220 0.000220
vt 0.353756 0.000220
vt 0.369127 0.015591
vt 0.338383 0.015590
vt 0.000219 0.000220
vt 0.338383 0.000219
vt 0.015591 0.138560
vt 0.015591 0.015591
vt 0.000220 0.000220
vt 0.015591 0.000220
vt 0.353754 0.015591
vt 0.338383 0.000220
vt 0.353754 0.000220
vt 0.538208 0.015591
vt 0.538208 0.000220
vt 0.200044 0.015591
vt 0.015591 0.000220
vt 0.200044 0.015591
vt 0.015591 0.015591
vt 0.353754 0.138560
vt 0.353754 0.015591
vt 0.013598 0.189166
vt 0.028969 0.173795
vt 0.028969 0.189166
vt 0.338383 0.000220
vt 0.338383 0.107817
vt 0.338383 0.015591
vt 0.200044 0.000220
vt 0.215415 0.015591
vt 0.336391 0.189166
vt 0.351762 0.173795
vt 0.351762 0.189166
vt 0.200044 0.000220
vt 0.215415 0.015591
vt 0.200044 0.107817
vt 0.244164 0.189166
vt 0.121195 0.173795
vt 0.244164 0.173795
vt 0.338383 0.107817
vt 0.338383 0.015591
vt 0.336391 0.173795
vt 0.353754 0.123188
vt 0.338383 0.138559
vt 0.338383 0.123188
vt 0.353754 0.107817
vt 0.215415 0.107817
vt 0.200044 0.123188
vt 0.215415 0.107817
vt 0.200044 0.123188
vt 0.200044 0.107817
vt 0.121195 0.189166
vt 0.353754 0.123188
vt 0.338383 0.138559
vt 0.338383 0.123188
vt 0.353754 0.107817
vt 0.215415 0.123188
vt 0.000220 0.138559
vt 0.000220 0.015591
vt 0.000220 0.138560
vt 0.000220 0.015591
vt 0.353756 0.138559
vt 0.200044 0.138559
vt 0.215415 0.123188
vt 0.200044 0.138559
vt 0.215415 0.138559
vt 0.015591 0.138560
vt 0.353754 0.138560
vt 0.015591 0.138560
vt 0.000220 0.138560
vt 0.000219 0.138560
vt 0.000219 0.138559
vt 0.000219 0.015590
vt 0.385156 0.339558
vt 0.213752 0.493822
vt 0.213752 0.339558
vt 0.190396 0.337772
vt 0.018992 0.492036
vt 0.018992 0.337772
vt 0.385156 0.339558
vt 0.213752 0.493822
vt 0.213752 0.339558
vt 0.385157 0.339558
vt 0.213752 0.493822
vt 0.213752 0.339558
vt 0.385156 0.339558
vt 0.213752 0.493822
vt 0.213752 0.339558
vt 0.385156 0.339558
vt 0.213752 0.493822
vt 0.213752 0.339558
vt 0.190396 0.337772
vt 0.018992 0.492036
vt 0.018992 0.337772
vt 0.190396 0.337772
vt 0.018992 0.492036
vt 0.018992 0.337772
vt 0.190396 0.337772
vt 0.018992 0.492036
vt 0.018992 0.337772
vt 0.190396 0.337772
vt 0.018992 0.492036
vt 0.018992 0.337772
vt 0.385156 0.339558
vt 0.213752 0.493822
vt 0.213752 0.339558
vt 0.385157 0.339558
vt 0.213752 0.493822
vt 0.213752 0.339558
vt 0.385157 0.339558
vt 0.213752 0.493822
vt 0.213752 0.339558
vt 0.385157 0.339558
vt 0.213752 0.493822
vt 0.213752 0.339558
vt 0.385157 0.339558
vt 0.213752 0.493822
vt 0.213752 0.339558
vt 0.385157 0.339558
vt 0.213752 0.493822
vt 0.213752 0.339558
vt 0.385157 0.339558
vt 0.213752 0.493822
vt 0.213752 0.339558
vt 0.385157 0.339558
vt 0.213752 0.493822
vt 0.213752 0.339558
vt 0.385157 0.339558
vt 0.213752 0.493822
vt 0.213752 0.339558
vt 0.385157 0.339558
vt 0.213752 0.493822
vt 0.213752 0.339558
vt 0.018992 0.337772
vt 0.190396 0.492036
vt 0.018992 0.492036
vt 0.190396 0.337772
vt 0.018992 0.492036
vt 0.018992 0.337772
vt 0.018992 0.337772
vt 0.190396 0.492036
vt 0.018992 0.492036
vt 0.190396 0.337772
vt 0.018992 0.492036
vt 0.018992 0.337772
vt 0.190396 0.337772
vt 0.018992 0.492036
vt 0.018992 0.337772
vt 0.190396 0.337772
vt 0.018992 0.492036
vt 0.018992 0.337772
vt 0.190396 0.337772
vt 0.018992 0.492036
vt 0.018992 0.337772
vt 0.018992 0.337772
vt 0.190396 0.492036
vt 0.018992 0.492036
vt 0.018992 0.337772
vt 0.190396 0.492036
vt 0.018992 0.492036
vt 0.018992 0.337772
vt 0.190396 0.492036
vt 0.018992 0.492036
vt 0.538208 0.015591
vt 0.184673 0.000220
vt 0.184673 0.138560
vt 0.008987 0.184785
vt 0.138560 0.000220
vt 0.138560 0.138560
vt 0.553579 0.138560
vt 0.338383 0.000220
vt 0.553579 0.000220
vt 0.369127 0.000220
vt 0.013598 0.173795
vt 0.215415 0.000220
vt 0.215415 0.000220
vt 0.369127 0.138559
vt 0.215415 0.138559
vt 0.538208 0.138560
vt 0.338384 0.138559
vt 0.338383 0.138559
vt 0.385156 0.493822
vt 0.190396 0.492036
vt 0.385156 0.493822
vt 0.385157 0.493822
vt 0.385157 0.493822
vt 0.385156 0.493822
vt 0.190396 0.492036
vt 0.190396 0.492036
vt 0.190396 0.492036
vt 0.190396 0.492036
vt 0.385156 0.493822
vt 0.385157 0.493822
vt 0.385157 0.493822
vt 0.385157 0.493822
vt 0.385157 0.493822
vt 0.385157 0.493822
vt 0.385157 0.493822
vt 0.385157 0.493822
vt 0.385157 0.493822
vt 0.385157 0.493822
vt 0.190396 0.337772
vt 0.190396 0.492036
vt 0.190396 0.337772
vt 0.190396 0.492036
vt 0.190396 0.492036
vt 0.190396 0.492036
vt 0.190396 0.492036
vt 0.190396 0.337772
vt 0.190396 0.337772
vt 0.190396 0.337772
vn 0.0000 0.0000 -1.0000
vn 1.0000 0.0000 0.0000
vn -1.0000 0.0000 0.0000
vn 0.0000 -0.0000 1.0000
vn 0.0000 -1.0000 -0.0000
vn 0.0000 1.0000 0.0000
usemtl Material.000
s 1
f 1/1/1 2/2/1 3/3/1
f 3/3/1 4/4/1 1/1/1
f 4/5/2 5/6/2 6/7/2
f 7/8/3 8/9/3 9/10/3
f 3/3/1 10/11/1 11/12/1
f 5/6/2 12/13/2 13/14/2
f 5/6/2 14/15/2 6/7/2
f 15/16/4 16/17/4 17/18/4
f 18/19/3 19/20/3 8/9/3
f 13/14/2 20/21/2 15/22/2
f 13/14/2 17/23/2 14/15/2
f 5/6/2 10/24/2 21/25/2
f 15/16/4 22/26/4 19/27/4
f 19/20/3 23/28/3 8/9/3
f 20/29/5 24/30/5 22/26/5
f 24/31/3 25/32/3 26/33/3
f 27/34/1 28/35/1 29/36/1
f 30/37/2 27/38/2 31/39/2
f 31/40/1 29/36/1 24/30/1
f 32/41/2 33/42/2 27/38/2
f 29/43/3 34/44/3 25/32/3
f 35/45/2 36/46/2 37/47/2
f 32/41/2 37/47/2 38/48/2
f 32/41/2 39/49/2 35/45/2
f 34/44/3 40/50/3 25/32/3
f 41/51/4 36/52/4 42/53/4
f 35/45/2 43/54/2 42/55/2
f 41/51/4 43/56/4 44/57/4
f 45/58/3 46/59/3 47/60/3
f 41/51/4 48/61/4 49/62/4
f 50/63/1 51/64/1 40/65/1
f 41/51/4 52/66/4 53/67/4
f 54/68/3 45/58/3 47/60/3
f 47/60/3 55/69/3 54/68/3
f 53/67/4 56/70/4 48/61/4
f 57/71/1 58/72/1 2/2/1
f 9/73/4 59/74/4 7/75/4
f 2/2/1 60/76/1 3/3/1
f 61/77/3 62/78/3 63/79/3
f 64/80/2 65/81/2 66/82/2
f 67/83/2 66/82/2 59/84/2
f 63/79/3 68/85/3 61/77/3
f 69/86/2 70/87/2 51/88/2
f 47/60/3 71/89/3 72/90/3
f 73/91/1 74/92/1 75/93/1
f 72/90/3 76/94/3 55/69/3
f 72/90/3 77/95/3 74/96/3
f 78/97/2 75/98/2 70/87/2
f 79/99/4 80/100/4 65/101/4
f 81/102/3 82/103/3 68/85/3
f 82/103/3 83/104/3 68/85/3
f 84/105/5 77/106/5 85/107/5
f 64/80/2 84/108/2 79/109/2
f 79/99/4 85/107/4 82/110/4
f 86/111/2 87/112/2 88/113/2
f 89/114/2 88/113/2 84/108/2
f 85/115/3 90/116/3 83/104/3
f 91/117/2 92/118/2 93/119/2
f 74/92/1 91/120/1 75/93/1
f 75/98/2 93/119/2 70/87/2
f 94/121/3 95/122/3 96/123/3
f 97/124/3 96/123/3 77/95/3
f 88/113/2 91/117/2 84/108/2
f 85/115/3 96/123/3 98/125/3
f 53/67/4 99/126/4 45/127/4
f 61/77/3 100/128/3 58/129/3
f 58/72/1 101/130/1 2/2/1
f 98/125/3 102/131/3 90/116/3
f 103/132/2 104/133/2 92/118/2
f 103/132/2 87/112/2 105/134/2
f 95/122/3 98/125/3 96/123/3
f 70/87/2 106/135/2 51/88/2
f 67/83/2 107/136/2 64/80/2
f 68/85/3 108/137/3 61/77/3
f 40/50/3 26/33/3 25/32/3
f 8/9/3 109/138/3 9/10/3
f 51/64/1 110/139/1 40/65/1
f 9/73/4 111/140/4 67/141/4
f 112/142/5 113/143/5 114/144/5
f 115/145/6 116/146/6 117/147/6
f 99/148/5 118/149/5 119/150/5
f 120/151/5 121/152/5 118/153/5
f 122/154/5 123/155/5 121/156/5
f 124/157/5 114/158/5 123/159/5
f 36/160/6 125/161/6 126/162/6
f 127/163/6 128/164/6 125/165/6
f 129/166/6 130/167/6 128/168/6
f 131/169/6 117/170/6 130/171/6
f 132/172/5 133/173/5 134/174/5
f 123/175/5 135/176/5 132/177/5
f 136/178/5 134/179/5 137/180/5
f 121/181/5 132/182/5 136/183/5
f 138/184/5 137/185/5 139/186/5
f 118/187/5 136/188/5 138/189/5
f 140/190/5 139/191/5 43/192/5
f 119/193/5 138/194/5 140/195/5
f 135/196/5 10/197/5 133/198/5
f 114/199/5 141/200/5 135/201/5
f 142/202/6 143/203/6 144/204/6
f 130/205/6 143/206/6 145/207/6
f 146/208/6 145/209/6 142/210/6
f 128/211/6 145/212/6 147/213/6
f 148/214/6 146/215/6 149/216/6
f 125/217/6 147/218/6 148/219/6
f 150/220/6 149/221/6 56/222/6
f 150/223/6 125/224/6 148/225/6
f 144/226/6 151/227/6 62/228/6
f 143/229/6 116/230/6 151/231/6
f 1/1/1 57/71/1 2/2/1
f 3/3/1 11/12/1 4/4/1
f 4/5/2 11/232/2 5/6/2
f 7/8/3 18/19/3 8/9/3
f 3/3/1 60/76/1 10/11/1
f 5/6/2 21/25/2 12/13/2
f 5/6/2 13/14/2 14/15/2
f 15/16/4 19/27/4 16/17/4
f 18/19/3 16/233/3 19/20/3
f 13/14/2 12/13/2 20/21/2
f 13/14/2 15/22/2 17/23/2
f 5/6/2 11/232/2 10/24/2
f 15/16/4 20/29/4 22/26/4
f 19/20/3 22/234/3 23/28/3
f 20/29/5 31/40/5 24/30/5
f 24/31/3 29/43/3 25/32/3
f 27/34/1 33/235/1 28/35/1
f 30/37/2 32/41/2 27/38/2
f 31/40/1 27/34/1 29/36/1
f 32/41/2 38/48/2 33/42/2
f 29/43/3 28/236/3 34/44/3
f 35/45/2 42/55/2 36/46/2
f 32/41/2 35/45/2 37/47/2
f 32/41/2 30/37/2 39/49/2
f 34/44/3 50/237/3 40/50/3
f 41/51/4 49/62/4 36/52/4
f 35/45/2 39/49/2 43/54/2
f 41/51/4 42/53/4 43/56/4
f 45/58/3 99/238/3 46/59/3
f 41/51/4 53/67/4 48/61/4
f 50/63/1 69/239/1 51/64/1
f 41/51/4 44/57/4 52/66/4
f 54/68/3 56/240/3 45/58/3
f 47/60/3 72/90/3 55/69/3
f 53/67/4 45/127/4 56/70/4
f 57/71/1 62/241/1 58/72/1
f 9/73/4 67/141/4 59/74/4
f 2/2/1 101/130/1 60/76/1
f 61/77/3 58/129/3 62/78/3
f 64/80/2 79/109/2 65/81/2
f 67/83/2 64/80/2 66/82/2
f 63/79/3 81/102/3 68/85/3
f 69/86/2 78/97/2 70/87/2
f 47/60/3 46/59/3 71/89/3
f 73/91/1 76/242/1 74/92/1
f 72/90/3 74/96/3 76/94/3
f 72/90/3 97/124/3 77/95/3
f 78/97/2 73/243/2 75/98/2
f 79/99/4 82/110/4 80/100/4
f 81/102/3 80/244/3 82/103/3
f 82/103/3 85/115/3 83/104/3
f 84/105/5 91/120/5 77/106/5
f 64/80/2 89/114/2 84/108/2
f 79/99/4 84/105/4 85/107/4
f 86/111/2 107/136/2 87/112/2
f 89/114/2 86/111/2 88/113/2
f 85/115/3 98/125/3 90/116/3
f 91/117/2 103/132/2 92/118/2
f 74/92/1 77/106/1 91/120/1
f 75/98/2 91/117/2 93/119/2
f 94/121/3 71/89/3 95/122/3
f 97/124/3 94/121/3 96/123/3
f 88/113/2 103/132/2 91/117/2
f 85/115/3 77/95/3 96/123/3
f 53/67/4 52/66/4 99/126/4
f 61/77/3 108/137/3 100/128/3
f 58/72/1 100/245/1 101/130/1
f 98/125/3 152/246/3 102/131/3
f 103/132/2 105/134/2 104/133/2
f 103/132/2 88/113/2 87/112/2
f 95/122/3 152/246/3 98/125/3
f 70/87/2 104/133/2 106/135/2
f 67/83/2 111/247/2 107/136/2
f 68/85/3 102/131/3 108/137/3
f 40/50/3 110/139/3 26/33/3
f 8/9/3 23/28/3 109/138/3
f 51/64/1 106/248/1 110/139/1
f 9/73/4 109/249/4 111/140/4
f 112/142/5 100/250/5 113/143/5
f 115/145/6 4/251/6 116/146/6
f 99/148/5 120/252/5 118/149/5
f 120/151/5 122/253/5 121/152/5
f 122/154/5 124/254/5 123/155/5
f 124/157/5 112/255/5 114/158/5
f 36/160/6 127/256/6 125/161/6
f 127/163/6 129/257/6 128/164/6
f 129/166/6 131/258/6 130/167/6
f 131/169/6 115/259/6 117/170/6
f 132/172/5 135/260/5 133/173/5
f 123/175/5 114/261/5 135/176/5
f 136/178/5 132/262/5 134/179/5
f 121/181/5 123/263/5 132/182/5
f 138/184/5 136/264/5 137/185/5
f 118/187/5 121/265/5 136/188/5
f 140/190/5 138/266/5 139/191/5
f 119/193/5 118/267/5 138/194/5
f 135/196/5 141/268/5 10/197/5
f 114/199/5 113/269/5 141/200/5
f 142/202/6 145/270/6 143/203/6
f 130/205/6 117/271/6 143/206/6
f 146/208/6 147/272/6 145/209/6
f 128/211/6 130/273/6 145/212/6
f 148/214/6 147/274/6 146/215/6
f 125/217/6 128/275/6 147/218/6
f 150/220/6 148/276/6 149/221/6
f 150/223/6 126/277/6 125/224/6
f 144/226/6 143/278/6 151/227/6
f 143/229/6 117/279/6 116/230/6
